<?xml version="1.0" encoding="utf-8"?>
<!-- Generator: Adobe Illustrator 23.0.1, SVG Export Plug-In . SVG Version: 6.00 Build 0)  -->
<svg version="1.1" id="Capa_1" xmlns="http://www.w3.org/2000/svg" xmlns:xlink="http://www.w3.org/1999/xlink" x="0px" y="0px"
	 viewBox="0 0 209.3 209.3" style="enable-background:new 0 0 209.3 209.3;" xml:space="preserve">
<style type="text/css">
	.st0{fill:#FFFFFF;}
</style>
<g>
	<path class="st0" d="M104.6,0C46.9,0,0,46.9,0,104.6s46.9,104.6,104.6,104.6s104.6-46.9,104.6-104.6S162.3,0,104.6,0z M104.6,194.3
		c-49.4,0-89.6-40.2-89.6-89.6S55.2,15,104.6,15s89.6,40.2,89.6,89.6S154.1,194.3,104.6,194.3z"/>
	<path class="st0" d="M104.6,55.8c-26.9,0-48.8,21.9-48.8,48.8c0,26.9,21.9,48.8,48.8,48.8c26.9,0,48.8-21.9,48.8-48.8
		C153.4,77.7,131.6,55.8,104.6,55.8z M104.6,138.5c-18.6,0-33.8-15.2-33.8-33.8c0-18.6,15.2-33.8,33.8-33.8s33.8,15.2,33.8,33.8
		C138.4,123.3,123.3,138.5,104.6,138.5z"/>
</g>
</svg>
