<?xml version="1.0" encoding="utf-8"?>
<!-- Generator: Adobe Illustrator 23.0.1, SVG Export Plug-In . SVG Version: 6.00 Build 0)  -->
<svg version="1.1" id="Capa_1" xmlns="http://www.w3.org/2000/svg" xmlns:xlink="http://www.w3.org/1999/xlink" x="0px" y="0px"
	 viewBox="0 0 285.6 285.6" style="enable-background:new 0 0 285.6 285.6;" xml:space="preserve">
<style type="text/css">
	.st0{fill:#FFFFFF;}
</style>
<path class="st0" d="M278.1,37.1h-189c-4.1,0-7.5,3.4-7.5,7.5v57.7H7.5c-4.1,0-7.5,3.4-7.5,7.5v99.8c0,4.1,3.4,7.5,7.5,7.5H36v24
	c0,2.8,1.5,5.4,4,6.6c1.1,0.6,2.3,0.9,3.5,0.9c1.5,0,3-0.4,4.3-1.3l43.5-30.1h60.3c4.1,0,7.5-3.4,7.5-7.5v-24.5h8.2l58.6,40.6
	c1.3,0.9,2.8,1.3,4.3,1.3c1.2,0,2.4-0.3,3.5-0.9c2.5-1.3,4-3.9,4-6.6v-34.5h40.5c4.1,0,7.5-3.4,7.5-7.5V44.6
	C285.6,40.4,282.3,37.1,278.1,37.1z M144,202.1H88.9c-1.5,0-3,0.5-4.3,1.3L51,226.7v-17.1c0-4.1-3.4-7.5-7.5-7.5H15v-84.8h129V202.1
	z M270.6,170.1h-40.5c-4.1,0-7.5,3.4-7.5,7.5v27.6l-48.7-33.8c-1.3-0.9-2.7-1.3-4.3-1.3H159v-60.3c0-4.1-3.4-7.5-7.5-7.5H96.6V52.1
	h174V170.1z"/>
</svg>
