<?xml version="1.0" encoding="utf-8"?>
<!-- Generator: Adobe Illustrator 23.0.1, SVG Export Plug-In . SVG Version: 6.00 Build 0)  -->
<svg version="1.1" id="Capa_1" xmlns="http://www.w3.org/2000/svg" xmlns:xlink="http://www.w3.org/1999/xlink" x="0px" y="0px"
	 viewBox="0 0 230.3 230.3" style="enable-background:new 0 0 230.3 230.3;" xml:space="preserve">
<style type="text/css">
	.st0{fill:#FFFFFF;}
</style>
<path class="st0" d="M228.1,125.6L176.4,74V23.3c0-4.1-3.4-7.5-7.5-7.5s-7.5,3.4-7.5,7.5V59l-41-41c-2.9-2.9-7.7-2.9-10.6,0
	L2.2,125.6c-2.9,2.9-2.9,7.7,0,10.6c2.9,2.9,7.7,2.9,10.6,0l18.7-18.7V207c0,4.1,3.4,7.5,7.5,7.5h152.2c4.1,0,7.5-3.4,7.5-7.5v-89.5
	l18.7,18.7c1.5,1.5,3.4,2.2,5.3,2.2c1.9,0,3.8-0.7,5.3-2.2C231,133.3,231,128.5,228.1,125.6z M183.7,199.5H46.5v-97l68.6-68.6
	l68.6,68.6L183.7,199.5L183.7,199.5z"/>
</svg>
