<?xml version="1.0" encoding="utf-8"?>
<!-- Generator: Adobe Illustrator 23.0.1, SVG Export Plug-In . SVG Version: 6.00 Build 0)  -->
<svg version="1.1" id="Capa_1" xmlns="http://www.w3.org/2000/svg" xmlns:xlink="http://www.w3.org/1999/xlink" x="0px" y="0px"
	 viewBox="0 0 230.8 230.8" style="enable-background:new 0 0 230.8 230.8;" xml:space="preserve">
<style type="text/css">
	.st0{fill:#FFFFFF;}
</style>
<g>
	<path class="st0" d="M60.4,63.3c-2.9-2.9-7.7-2.9-10.6,0L2.2,110.8c-1.4,1.4-2.2,3.3-2.2,5.3s0.8,3.9,2.2,5.3l47.3,47.3
		c1.5,1.5,3.4,2.2,5.3,2.2c1.9,0,3.8-0.7,5.3-2.2c2.9-2.9,2.9-7.7,0-10.6l-42-42l42.3-42.2C63.3,71,63.3,66.2,60.4,63.3z"/>
	<path class="st0" d="M228.6,110.6l-47.4-47.4c-2.9-2.9-7.7-2.9-10.6,0c-2.9,2.9-2.9,7.7,0,10.6l42.1,42l-42.2,42.2
		c-2.9,2.9-2.9,7.7,0,10.6c1.5,1.5,3.4,2.2,5.3,2.2c1.9,0,3.8-0.7,5.3-2.2l47.6-47.5c1.4-1.4,2.2-3.3,2.2-5.3
		C230.8,114,230,112,228.6,110.6z"/>
	<path class="st0" d="M155.9,61.3c-3.3-2.5-8-1.8-10.5,1.5l-72,96.2c-2.5,3.3-1.8,8,1.5,10.5c1.3,1,2.9,1.5,4.5,1.5c2.3,0,4.5-1,6-3
		l72-96.2C159.9,68.5,159.2,63.8,155.9,61.3z"/>
</g>
</svg>
